<?xml version="1.0" encoding="UTF-8"?>
<svg xmlns="http://www.w3.org/2000/svg" xmlns:xlink="http://www.w3.org/1999/xlink" width="100px" height="100px" viewBox="0 0 100 100" version="1.1">
<g id="surface1">
<rect x="0" y="0" width="100" height="100" style="fill:rgb(100%,100%,100%);fill-opacity:1;stroke:none;"/>
<path style=" stroke:none;fill-rule:nonzero;fill:rgb(0%,0%,0%);fill-opacity:1;" d="M 3.226562 3.226562 L 6.453125 3.226562 L 6.453125 6.453125 L 3.226562 6.453125 Z M 6.453125 3.226562 L 9.675781 3.226562 L 9.675781 6.453125 L 6.453125 6.453125 Z M 9.675781 3.226562 L 12.902344 3.226562 L 12.902344 6.453125 L 9.675781 6.453125 Z M 12.902344 3.226562 L 16.128906 3.226562 L 16.128906 6.453125 L 12.902344 6.453125 Z M 16.128906 3.226562 L 19.355469 3.226562 L 19.355469 6.453125 L 16.128906 6.453125 Z M 19.355469 3.226562 L 22.582031 3.226562 L 22.582031 6.453125 L 19.355469 6.453125 Z M 22.582031 3.226562 L 25.804688 3.226562 L 25.804688 6.453125 L 22.582031 6.453125 Z M 35.484375 3.226562 L 38.710938 3.226562 L 38.710938 6.453125 L 35.484375 6.453125 Z M 41.933594 3.226562 L 45.160156 3.226562 L 45.160156 6.453125 L 41.933594 6.453125 Z M 45.160156 3.226562 L 48.386719 3.226562 L 48.386719 6.453125 L 45.160156 6.453125 Z M 54.839844 3.226562 L 58.066406 3.226562 L 58.066406 6.453125 L 54.839844 6.453125 Z M 58.066406 3.226562 L 61.289062 3.226562 L 61.289062 6.453125 L 58.066406 6.453125 Z M 61.289062 3.226562 L 64.515625 3.226562 L 64.515625 6.453125 L 61.289062 6.453125 Z M 64.515625 3.226562 L 67.742188 3.226562 L 67.742188 6.453125 L 64.515625 6.453125 Z M 67.742188 3.226562 L 70.96875 3.226562 L 70.96875 6.453125 L 67.742188 6.453125 Z M 74.195312 3.226562 L 77.417969 3.226562 L 77.417969 6.453125 L 74.195312 6.453125 Z M 77.417969 3.226562 L 80.644531 3.226562 L 80.644531 6.453125 L 77.417969 6.453125 Z M 80.644531 3.226562 L 83.871094 3.226562 L 83.871094 6.453125 L 80.644531 6.453125 Z M 83.871094 3.226562 L 87.097656 3.226562 L 87.097656 6.453125 L 83.871094 6.453125 Z M 87.097656 3.226562 L 90.324219 3.226562 L 90.324219 6.453125 L 87.097656 6.453125 Z M 90.324219 3.226562 L 93.546875 3.226562 L 93.546875 6.453125 L 90.324219 6.453125 Z M 93.546875 3.226562 L 96.773438 3.226562 L 96.773438 6.453125 L 93.546875 6.453125 Z M 3.226562 6.453125 L 6.453125 6.453125 L 6.453125 9.675781 L 3.226562 9.675781 Z M 22.582031 6.453125 L 25.804688 6.453125 L 25.804688 9.675781 L 22.582031 9.675781 Z M 29.03125 6.453125 L 32.257812 6.453125 L 32.257812 9.675781 L 29.03125 9.675781 Z M 35.484375 6.453125 L 38.710938 6.453125 L 38.710938 9.675781 L 35.484375 9.675781 Z M 48.386719 6.453125 L 51.613281 6.453125 L 51.613281 9.675781 L 48.386719 9.675781 Z M 51.613281 6.453125 L 54.839844 6.453125 L 54.839844 9.675781 L 51.613281 9.675781 Z M 54.839844 6.453125 L 58.066406 6.453125 L 58.066406 9.675781 L 54.839844 9.675781 Z M 58.066406 6.453125 L 61.289062 6.453125 L 61.289062 9.675781 L 58.066406 9.675781 Z M 67.742188 6.453125 L 70.96875 6.453125 L 70.96875 9.675781 L 67.742188 9.675781 Z M 74.195312 6.453125 L 77.417969 6.453125 L 77.417969 9.675781 L 74.195312 9.675781 Z M 93.546875 6.453125 L 96.773438 6.453125 L 96.773438 9.675781 L 93.546875 9.675781 Z M 3.226562 9.675781 L 6.453125 9.675781 L 6.453125 12.902344 L 3.226562 12.902344 Z M 9.675781 9.675781 L 12.902344 9.675781 L 12.902344 12.902344 L 9.675781 12.902344 Z M 12.902344 9.675781 L 16.128906 9.675781 L 16.128906 12.902344 L 12.902344 12.902344 Z M 16.128906 9.675781 L 19.355469 9.675781 L 19.355469 12.902344 L 16.128906 12.902344 Z M 22.582031 9.675781 L 25.804688 9.675781 L 25.804688 12.902344 L 22.582031 12.902344 Z M 41.933594 9.675781 L 45.160156 9.675781 L 45.160156 12.902344 L 41.933594 12.902344 Z M 48.386719 9.675781 L 51.613281 9.675781 L 51.613281 12.902344 L 48.386719 12.902344 Z M 51.613281 9.675781 L 54.839844 9.675781 L 54.839844 12.902344 L 51.613281 12.902344 Z M 54.839844 9.675781 L 58.066406 9.675781 L 58.066406 12.902344 L 54.839844 12.902344 Z M 64.515625 9.675781 L 67.742188 9.675781 L 67.742188 12.902344 L 64.515625 12.902344 Z M 74.195312 9.675781 L 77.417969 9.675781 L 77.417969 12.902344 L 74.195312 12.902344 Z M 80.644531 9.675781 L 83.871094 9.675781 L 83.871094 12.902344 L 80.644531 12.902344 Z M 83.871094 9.675781 L 87.097656 9.675781 L 87.097656 12.902344 L 83.871094 12.902344 Z M 87.097656 9.675781 L 90.324219 9.675781 L 90.324219 12.902344 L 87.097656 12.902344 Z M 93.546875 9.675781 L 96.773438 9.675781 L 96.773438 12.902344 L 93.546875 12.902344 Z M 3.226562 12.902344 L 6.453125 12.902344 L 6.453125 16.128906 L 3.226562 16.128906 Z M 9.675781 12.902344 L 12.902344 12.902344 L 12.902344 16.128906 L 9.675781 16.128906 Z M 12.902344 12.902344 L 16.128906 12.902344 L 16.128906 16.128906 L 12.902344 16.128906 Z M 16.128906 12.902344 L 19.355469 12.902344 L 19.355469 16.128906 L 16.128906 16.128906 Z M 22.582031 12.902344 L 25.804688 12.902344 L 25.804688 16.128906 L 22.582031 16.128906 Z M 29.03125 12.902344 L 32.257812 12.902344 L 32.257812 16.128906 L 29.03125 16.128906 Z M 32.257812 12.902344 L 35.484375 12.902344 L 35.484375 16.128906 L 32.257812 16.128906 Z M 35.484375 12.902344 L 38.710938 12.902344 L 38.710938 16.128906 L 35.484375 16.128906 Z M 41.933594 12.902344 L 45.160156 12.902344 L 45.160156 16.128906 L 41.933594 16.128906 Z M 45.160156 12.902344 L 48.386719 12.902344 L 48.386719 16.128906 L 45.160156 16.128906 Z M 48.386719 12.902344 L 51.613281 12.902344 L 51.613281 16.128906 L 48.386719 16.128906 Z M 51.613281 12.902344 L 54.839844 12.902344 L 54.839844 16.128906 L 51.613281 16.128906 Z M 58.066406 12.902344 L 61.289062 12.902344 L 61.289062 16.128906 L 58.066406 16.128906 Z M 74.195312 12.902344 L 77.417969 12.902344 L 77.417969 16.128906 L 74.195312 16.128906 Z M 80.644531 12.902344 L 83.871094 12.902344 L 83.871094 16.128906 L 80.644531 16.128906 Z M 83.871094 12.902344 L 87.097656 12.902344 L 87.097656 16.128906 L 83.871094 16.128906 Z M 87.097656 12.902344 L 90.324219 12.902344 L 90.324219 16.128906 L 87.097656 16.128906 Z M 93.546875 12.902344 L 96.773438 12.902344 L 96.773438 16.128906 L 93.546875 16.128906 Z M 3.226562 16.128906 L 6.453125 16.128906 L 6.453125 19.355469 L 3.226562 19.355469 Z M 9.675781 16.128906 L 12.902344 16.128906 L 12.902344 19.355469 L 9.675781 19.355469 Z M 12.902344 16.128906 L 16.128906 16.128906 L 16.128906 19.355469 L 12.902344 19.355469 Z M 16.128906 16.128906 L 19.355469 16.128906 L 19.355469 19.355469 L 16.128906 19.355469 Z M 22.582031 16.128906 L 25.804688 16.128906 L 25.804688 19.355469 L 22.582031 19.355469 Z M 32.257812 16.128906 L 35.484375 16.128906 L 35.484375 19.355469 L 32.257812 19.355469 Z M 45.160156 16.128906 L 48.386719 16.128906 L 48.386719 19.355469 L 45.160156 19.355469 Z M 54.839844 16.128906 L 58.066406 16.128906 L 58.066406 19.355469 L 54.839844 19.355469 Z M 58.066406 16.128906 L 61.289062 16.128906 L 61.289062 19.355469 L 58.066406 19.355469 Z M 61.289062 16.128906 L 64.515625 16.128906 L 64.515625 19.355469 L 61.289062 19.355469 Z M 64.515625 16.128906 L 67.742188 16.128906 L 67.742188 19.355469 L 64.515625 19.355469 Z M 67.742188 16.128906 L 70.96875 16.128906 L 70.96875 19.355469 L 67.742188 19.355469 Z M 74.195312 16.128906 L 77.417969 16.128906 L 77.417969 19.355469 L 74.195312 19.355469 Z M 80.644531 16.128906 L 83.871094 16.128906 L 83.871094 19.355469 L 80.644531 19.355469 Z M 83.871094 16.128906 L 87.097656 16.128906 L 87.097656 19.355469 L 83.871094 19.355469 Z M 87.097656 16.128906 L 90.324219 16.128906 L 90.324219 19.355469 L 87.097656 19.355469 Z M 93.546875 16.128906 L 96.773438 16.128906 L 96.773438 19.355469 L 93.546875 19.355469 Z M 3.226562 19.355469 L 6.453125 19.355469 L 6.453125 22.582031 L 3.226562 22.582031 Z M 22.582031 19.355469 L 25.804688 19.355469 L 25.804688 22.582031 L 22.582031 22.582031 Z M 29.03125 19.355469 L 32.257812 19.355469 L 32.257812 22.582031 L 29.03125 22.582031 Z M 32.257812 19.355469 L 35.484375 19.355469 L 35.484375 22.582031 L 32.257812 22.582031 Z M 38.710938 19.355469 L 41.933594 19.355469 L 41.933594 22.582031 L 38.710938 22.582031 Z M 41.933594 19.355469 L 45.160156 19.355469 L 45.160156 22.582031 L 41.933594 22.582031 Z M 45.160156 19.355469 L 48.386719 19.355469 L 48.386719 22.582031 L 45.160156 22.582031 Z M 48.386719 19.355469 L 51.613281 19.355469 L 51.613281 22.582031 L 48.386719 22.582031 Z M 51.613281 19.355469 L 54.839844 19.355469 L 54.839844 22.582031 L 51.613281 22.582031 Z M 54.839844 19.355469 L 58.066406 19.355469 L 58.066406 22.582031 L 54.839844 22.582031 Z M 74.195312 19.355469 L 77.417969 19.355469 L 77.417969 22.582031 L 74.195312 22.582031 Z M 93.546875 19.355469 L 96.773438 19.355469 L 96.773438 22.582031 L 93.546875 22.582031 Z M 3.226562 22.582031 L 6.453125 22.582031 L 6.453125 25.804688 L 3.226562 25.804688 Z M 6.453125 22.582031 L 9.675781 22.582031 L 9.675781 25.804688 L 6.453125 25.804688 Z M 9.675781 22.582031 L 12.902344 22.582031 L 12.902344 25.804688 L 9.675781 25.804688 Z M 12.902344 22.582031 L 16.128906 22.582031 L 16.128906 25.804688 L 12.902344 25.804688 Z M 16.128906 22.582031 L 19.355469 22.582031 L 19.355469 25.804688 L 16.128906 25.804688 Z M 19.355469 22.582031 L 22.582031 22.582031 L 22.582031 25.804688 L 19.355469 25.804688 Z M 22.582031 22.582031 L 25.804688 22.582031 L 25.804688 25.804688 L 22.582031 25.804688 Z M 29.03125 22.582031 L 32.257812 22.582031 L 32.257812 25.804688 L 29.03125 25.804688 Z M 35.484375 22.582031 L 38.710938 22.582031 L 38.710938 25.804688 L 35.484375 25.804688 Z M 41.933594 22.582031 L 45.160156 22.582031 L 45.160156 25.804688 L 41.933594 25.804688 Z M 48.386719 22.582031 L 51.613281 22.582031 L 51.613281 25.804688 L 48.386719 25.804688 Z M 54.839844 22.582031 L 58.066406 22.582031 L 58.066406 25.804688 L 54.839844 25.804688 Z M 61.289062 22.582031 L 64.515625 22.582031 L 64.515625 25.804688 L 61.289062 25.804688 Z M 67.742188 22.582031 L 70.96875 22.582031 L 70.96875 25.804688 L 67.742188 25.804688 Z M 74.195312 22.582031 L 77.417969 22.582031 L 77.417969 25.804688 L 74.195312 25.804688 Z M 77.417969 22.582031 L 80.644531 22.582031 L 80.644531 25.804688 L 77.417969 25.804688 Z M 80.644531 22.582031 L 83.871094 22.582031 L 83.871094 25.804688 L 80.644531 25.804688 Z M 83.871094 22.582031 L 87.097656 22.582031 L 87.097656 25.804688 L 83.871094 25.804688 Z M 87.097656 22.582031 L 90.324219 22.582031 L 90.324219 25.804688 L 87.097656 25.804688 Z M 90.324219 22.582031 L 93.546875 22.582031 L 93.546875 25.804688 L 90.324219 25.804688 Z M 93.546875 22.582031 L 96.773438 22.582031 L 96.773438 25.804688 L 93.546875 25.804688 Z M 32.257812 25.804688 L 35.484375 25.804688 L 35.484375 29.03125 L 32.257812 29.03125 Z M 35.484375 25.804688 L 38.710938 25.804688 L 38.710938 29.03125 L 35.484375 29.03125 Z M 38.710938 25.804688 L 41.933594 25.804688 L 41.933594 29.03125 L 38.710938 29.03125 Z M 48.386719 25.804688 L 51.613281 25.804688 L 51.613281 29.03125 L 48.386719 29.03125 Z M 51.613281 25.804688 L 54.839844 25.804688 L 54.839844 29.03125 L 51.613281 29.03125 Z M 54.839844 25.804688 L 58.066406 25.804688 L 58.066406 29.03125 L 54.839844 29.03125 Z M 64.515625 25.804688 L 67.742188 25.804688 L 67.742188 29.03125 L 64.515625 29.03125 Z M 67.742188 25.804688 L 70.96875 25.804688 L 70.96875 29.03125 L 67.742188 29.03125 Z M 3.226562 29.03125 L 6.453125 29.03125 L 6.453125 32.257812 L 3.226562 32.257812 Z M 6.453125 29.03125 L 9.675781 29.03125 L 9.675781 32.257812 L 6.453125 32.257812 Z M 9.675781 29.03125 L 12.902344 29.03125 L 12.902344 32.257812 L 9.675781 32.257812 Z M 12.902344 29.03125 L 16.128906 29.03125 L 16.128906 32.257812 L 12.902344 32.257812 Z M 16.128906 29.03125 L 19.355469 29.03125 L 19.355469 32.257812 L 16.128906 32.257812 Z M 22.582031 29.03125 L 25.804688 29.03125 L 25.804688 32.257812 L 22.582031 32.257812 Z M 25.804688 29.03125 L 29.03125 29.03125 L 29.03125 32.257812 L 25.804688 32.257812 Z M 29.03125 29.03125 L 32.257812 29.03125 L 32.257812 32.257812 L 29.03125 32.257812 Z M 32.257812 29.03125 L 35.484375 29.03125 L 35.484375 32.257812 L 32.257812 32.257812 Z M 38.710938 29.03125 L 41.933594 29.03125 L 41.933594 32.257812 L 38.710938 32.257812 Z M 45.160156 29.03125 L 48.386719 29.03125 L 48.386719 32.257812 L 45.160156 32.257812 Z M 48.386719 29.03125 L 51.613281 29.03125 L 51.613281 32.257812 L 48.386719 32.257812 Z M 58.066406 29.03125 L 61.289062 29.03125 L 61.289062 32.257812 L 58.066406 32.257812 Z M 61.289062 29.03125 L 64.515625 29.03125 L 64.515625 32.257812 L 61.289062 32.257812 Z M 64.515625 29.03125 L 67.742188 29.03125 L 67.742188 32.257812 L 64.515625 32.257812 Z M 70.96875 29.03125 L 74.195312 29.03125 L 74.195312 32.257812 L 70.96875 32.257812 Z M 77.417969 29.03125 L 80.644531 29.03125 L 80.644531 32.257812 L 77.417969 32.257812 Z M 83.871094 29.03125 L 87.097656 29.03125 L 87.097656 32.257812 L 83.871094 32.257812 Z M 90.324219 29.03125 L 93.546875 29.03125 L 93.546875 32.257812 L 90.324219 32.257812 Z M 6.453125 32.257812 L 9.675781 32.257812 L 9.675781 35.484375 L 6.453125 35.484375 Z M 9.675781 32.257812 L 12.902344 32.257812 L 12.902344 35.484375 L 9.675781 35.484375 Z M 12.902344 32.257812 L 16.128906 32.257812 L 16.128906 35.484375 L 12.902344 35.484375 Z M 16.128906 32.257812 L 19.355469 32.257812 L 19.355469 35.484375 L 16.128906 35.484375 Z M 19.355469 32.257812 L 22.582031 32.257812 L 22.582031 35.484375 L 19.355469 35.484375 Z M 29.03125 32.257812 L 32.257812 32.257812 L 32.257812 35.484375 L 29.03125 35.484375 Z M 35.484375 32.257812 L 38.710938 32.257812 L 38.710938 35.484375 L 35.484375 35.484375 Z M 41.933594 32.257812 L 45.160156 32.257812 L 45.160156 35.484375 L 41.933594 35.484375 Z M 45.160156 32.257812 L 48.386719 32.257812 L 48.386719 35.484375 L 45.160156 35.484375 Z M 54.839844 32.257812 L 58.066406 32.257812 L 58.066406 35.484375 L 54.839844 35.484375 Z M 58.066406 32.257812 L 61.289062 32.257812 L 61.289062 35.484375 L 58.066406 35.484375 Z M 61.289062 32.257812 L 64.515625 32.257812 L 64.515625 35.484375 L 61.289062 35.484375 Z M 64.515625 32.257812 L 67.742188 32.257812 L 67.742188 35.484375 L 64.515625 35.484375 Z M 70.96875 32.257812 L 74.195312 32.257812 L 74.195312 35.484375 L 70.96875 35.484375 Z M 74.195312 32.257812 L 77.417969 32.257812 L 77.417969 35.484375 L 74.195312 35.484375 Z M 77.417969 32.257812 L 80.644531 32.257812 L 80.644531 35.484375 L 77.417969 35.484375 Z M 80.644531 32.257812 L 83.871094 32.257812 L 83.871094 35.484375 L 80.644531 35.484375 Z M 93.546875 32.257812 L 96.773438 32.257812 L 96.773438 35.484375 L 93.546875 35.484375 Z M 3.226562 35.484375 L 6.453125 35.484375 L 6.453125 38.710938 L 3.226562 38.710938 Z M 6.453125 35.484375 L 9.675781 35.484375 L 9.675781 38.710938 L 6.453125 38.710938 Z M 9.675781 35.484375 L 12.902344 35.484375 L 12.902344 38.710938 L 9.675781 38.710938 Z M 12.902344 35.484375 L 16.128906 35.484375 L 16.128906 38.710938 L 12.902344 38.710938 Z M 19.355469 35.484375 L 22.582031 35.484375 L 22.582031 38.710938 L 19.355469 38.710938 Z M 22.582031 35.484375 L 25.804688 35.484375 L 25.804688 38.710938 L 22.582031 38.710938 Z M 25.804688 35.484375 L 29.03125 35.484375 L 29.03125 38.710938 L 25.804688 38.710938 Z M 29.03125 35.484375 L 32.257812 35.484375 L 32.257812 38.710938 L 29.03125 38.710938 Z M 35.484375 35.484375 L 38.710938 35.484375 L 38.710938 38.710938 L 35.484375 38.710938 Z M 45.160156 35.484375 L 48.386719 35.484375 L 48.386719 38.710938 L 45.160156 38.710938 Z M 48.386719 35.484375 L 51.613281 35.484375 L 51.613281 38.710938 L 48.386719 38.710938 Z M 51.613281 35.484375 L 54.839844 35.484375 L 54.839844 38.710938 L 51.613281 38.710938 Z M 54.839844 35.484375 L 58.066406 35.484375 L 58.066406 38.710938 L 54.839844 38.710938 Z M 58.066406 35.484375 L 61.289062 35.484375 L 61.289062 38.710938 L 58.066406 38.710938 Z M 74.195312 35.484375 L 77.417969 35.484375 L 77.417969 38.710938 L 74.195312 38.710938 Z M 3.226562 38.710938 L 6.453125 38.710938 L 6.453125 41.933594 L 3.226562 41.933594 Z M 9.675781 38.710938 L 12.902344 38.710938 L 12.902344 41.933594 L 9.675781 41.933594 Z M 12.902344 38.710938 L 16.128906 38.710938 L 16.128906 41.933594 L 12.902344 41.933594 Z M 41.933594 38.710938 L 45.160156 38.710938 L 45.160156 41.933594 L 41.933594 41.933594 Z M 51.613281 38.710938 L 54.839844 38.710938 L 54.839844 41.933594 L 51.613281 41.933594 Z M 54.839844 38.710938 L 58.066406 38.710938 L 58.066406 41.933594 L 54.839844 41.933594 Z M 64.515625 38.710938 L 67.742188 38.710938 L 67.742188 41.933594 L 64.515625 41.933594 Z M 67.742188 38.710938 L 70.96875 38.710938 L 70.96875 41.933594 L 67.742188 41.933594 Z M 70.96875 38.710938 L 74.195312 38.710938 L 74.195312 41.933594 L 70.96875 41.933594 Z M 77.417969 38.710938 L 80.644531 38.710938 L 80.644531 41.933594 L 77.417969 41.933594 Z M 83.871094 38.710938 L 87.097656 38.710938 L 87.097656 41.933594 L 83.871094 41.933594 Z M 90.324219 38.710938 L 93.546875 38.710938 L 93.546875 41.933594 L 90.324219 41.933594 Z M 3.226562 41.933594 L 6.453125 41.933594 L 6.453125 45.160156 L 3.226562 45.160156 Z M 6.453125 41.933594 L 9.675781 41.933594 L 9.675781 45.160156 L 6.453125 45.160156 Z M 9.675781 41.933594 L 12.902344 41.933594 L 12.902344 45.160156 L 9.675781 45.160156 Z M 22.582031 41.933594 L 25.804688 41.933594 L 25.804688 45.160156 L 22.582031 45.160156 Z M 25.804688 41.933594 L 29.03125 41.933594 L 29.03125 45.160156 L 25.804688 45.160156 Z M 29.03125 41.933594 L 32.257812 41.933594 L 32.257812 45.160156 L 29.03125 45.160156 Z M 32.257812 41.933594 L 35.484375 41.933594 L 35.484375 45.160156 L 32.257812 45.160156 Z M 35.484375 41.933594 L 38.710938 41.933594 L 38.710938 45.160156 L 35.484375 45.160156 Z M 41.933594 41.933594 L 45.160156 41.933594 L 45.160156 45.160156 L 41.933594 45.160156 Z M 45.160156 41.933594 L 48.386719 41.933594 L 48.386719 45.160156 L 45.160156 45.160156 Z M 58.066406 41.933594 L 61.289062 41.933594 L 61.289062 45.160156 L 58.066406 45.160156 Z M 64.515625 41.933594 L 67.742188 41.933594 L 67.742188 45.160156 L 64.515625 45.160156 Z M 83.871094 41.933594 L 87.097656 41.933594 L 87.097656 45.160156 L 83.871094 45.160156 Z M 87.097656 41.933594 L 90.324219 41.933594 L 90.324219 45.160156 L 87.097656 45.160156 Z M 6.453125 45.160156 L 9.675781 45.160156 L 9.675781 48.386719 L 6.453125 48.386719 Z M 9.675781 45.160156 L 12.902344 45.160156 L 12.902344 48.386719 L 9.675781 48.386719 Z M 16.128906 45.160156 L 19.355469 45.160156 L 19.355469 48.386719 L 16.128906 48.386719 Z M 32.257812 45.160156 L 35.484375 45.160156 L 35.484375 48.386719 L 32.257812 48.386719 Z M 45.160156 45.160156 L 48.386719 45.160156 L 48.386719 48.386719 L 45.160156 48.386719 Z M 58.066406 45.160156 L 61.289062 45.160156 L 61.289062 48.386719 L 58.066406 48.386719 Z M 61.289062 45.160156 L 64.515625 45.160156 L 64.515625 48.386719 L 61.289062 48.386719 Z M 64.515625 45.160156 L 67.742188 45.160156 L 67.742188 48.386719 L 64.515625 48.386719 Z M 67.742188 45.160156 L 70.96875 45.160156 L 70.96875 48.386719 L 67.742188 48.386719 Z M 70.96875 45.160156 L 74.195312 45.160156 L 74.195312 48.386719 L 70.96875 48.386719 Z M 74.195312 45.160156 L 77.417969 45.160156 L 77.417969 48.386719 L 74.195312 48.386719 Z M 80.644531 45.160156 L 83.871094 45.160156 L 83.871094 48.386719 L 80.644531 48.386719 Z M 93.546875 45.160156 L 96.773438 45.160156 L 96.773438 48.386719 L 93.546875 48.386719 Z M 6.453125 48.386719 L 9.675781 48.386719 L 9.675781 51.613281 L 6.453125 51.613281 Z M 12.902344 48.386719 L 16.128906 48.386719 L 16.128906 51.613281 L 12.902344 51.613281 Z M 22.582031 48.386719 L 25.804688 48.386719 L 25.804688 51.613281 L 22.582031 51.613281 Z M 32.257812 48.386719 L 35.484375 48.386719 L 35.484375 51.613281 L 32.257812 51.613281 Z M 35.484375 48.386719 L 38.710938 48.386719 L 38.710938 51.613281 L 35.484375 51.613281 Z M 38.710938 48.386719 L 41.933594 48.386719 L 41.933594 51.613281 L 38.710938 51.613281 Z M 41.933594 48.386719 L 45.160156 48.386719 L 45.160156 51.613281 L 41.933594 51.613281 Z M 45.160156 48.386719 L 48.386719 48.386719 L 48.386719 51.613281 L 45.160156 51.613281 Z M 48.386719 48.386719 L 51.613281 48.386719 L 51.613281 51.613281 L 48.386719 51.613281 Z M 51.613281 48.386719 L 54.839844 48.386719 L 54.839844 51.613281 L 51.613281 51.613281 Z M 54.839844 48.386719 L 58.066406 48.386719 L 58.066406 51.613281 L 54.839844 51.613281 Z M 61.289062 48.386719 L 64.515625 48.386719 L 64.515625 51.613281 L 61.289062 51.613281 Z M 67.742188 48.386719 L 70.96875 48.386719 L 70.96875 51.613281 L 67.742188 51.613281 Z M 70.96875 48.386719 L 74.195312 48.386719 L 74.195312 51.613281 L 70.96875 51.613281 Z M 74.195312 48.386719 L 77.417969 48.386719 L 77.417969 51.613281 L 74.195312 51.613281 Z M 77.417969 48.386719 L 80.644531 48.386719 L 80.644531 51.613281 L 77.417969 51.613281 Z M 83.871094 48.386719 L 87.097656 48.386719 L 87.097656 51.613281 L 83.871094 51.613281 Z M 87.097656 48.386719 L 90.324219 48.386719 L 90.324219 51.613281 L 87.097656 51.613281 Z M 3.226562 51.613281 L 6.453125 51.613281 L 6.453125 54.839844 L 3.226562 54.839844 Z M 6.453125 51.613281 L 9.675781 51.613281 L 9.675781 54.839844 L 6.453125 54.839844 Z M 9.675781 51.613281 L 12.902344 51.613281 L 12.902344 54.839844 L 9.675781 54.839844 Z M 12.902344 51.613281 L 16.128906 51.613281 L 16.128906 54.839844 L 12.902344 54.839844 Z M 16.128906 51.613281 L 19.355469 51.613281 L 19.355469 54.839844 L 16.128906 54.839844 Z M 38.710938 51.613281 L 41.933594 51.613281 L 41.933594 54.839844 L 38.710938 54.839844 Z M 48.386719 51.613281 L 51.613281 51.613281 L 51.613281 54.839844 L 48.386719 54.839844 Z M 51.613281 51.613281 L 54.839844 51.613281 L 54.839844 54.839844 L 51.613281 54.839844 Z M 77.417969 51.613281 L 80.644531 51.613281 L 80.644531 54.839844 L 77.417969 54.839844 Z M 80.644531 51.613281 L 83.871094 51.613281 L 83.871094 54.839844 L 80.644531 54.839844 Z M 90.324219 51.613281 L 93.546875 51.613281 L 93.546875 54.839844 L 90.324219 54.839844 Z M 3.226562 54.839844 L 6.453125 54.839844 L 6.453125 58.066406 L 3.226562 58.066406 Z M 22.582031 54.839844 L 25.804688 54.839844 L 25.804688 58.066406 L 22.582031 58.066406 Z M 38.710938 54.839844 L 41.933594 54.839844 L 41.933594 58.066406 L 38.710938 58.066406 Z M 51.613281 54.839844 L 54.839844 54.839844 L 54.839844 58.066406 L 51.613281 58.066406 Z M 58.066406 54.839844 L 61.289062 54.839844 L 61.289062 58.066406 L 58.066406 58.066406 Z M 64.515625 54.839844 L 67.742188 54.839844 L 67.742188 58.066406 L 64.515625 58.066406 Z M 77.417969 54.839844 L 80.644531 54.839844 L 80.644531 58.066406 L 77.417969 58.066406 Z M 83.871094 54.839844 L 87.097656 54.839844 L 87.097656 58.066406 L 83.871094 58.066406 Z M 87.097656 54.839844 L 90.324219 54.839844 L 90.324219 58.066406 L 87.097656 58.066406 Z M 3.226562 58.066406 L 6.453125 58.066406 L 6.453125 61.289062 L 3.226562 61.289062 Z M 16.128906 58.066406 L 19.355469 58.066406 L 19.355469 61.289062 L 16.128906 61.289062 Z M 32.257812 58.066406 L 35.484375 58.066406 L 35.484375 61.289062 L 32.257812 61.289062 Z M 41.933594 58.066406 L 45.160156 58.066406 L 45.160156 61.289062 L 41.933594 61.289062 Z M 45.160156 58.066406 L 48.386719 58.066406 L 48.386719 61.289062 L 45.160156 61.289062 Z M 54.839844 58.066406 L 58.066406 58.066406 L 58.066406 61.289062 L 54.839844 61.289062 Z M 58.066406 58.066406 L 61.289062 58.066406 L 61.289062 61.289062 L 58.066406 61.289062 Z M 61.289062 58.066406 L 64.515625 58.066406 L 64.515625 61.289062 L 61.289062 61.289062 Z M 64.515625 58.066406 L 67.742188 58.066406 L 67.742188 61.289062 L 64.515625 61.289062 Z M 67.742188 58.066406 L 70.96875 58.066406 L 70.96875 61.289062 L 67.742188 61.289062 Z M 70.96875 58.066406 L 74.195312 58.066406 L 74.195312 61.289062 L 70.96875 61.289062 Z M 74.195312 58.066406 L 77.417969 58.066406 L 77.417969 61.289062 L 74.195312 61.289062 Z M 77.417969 58.066406 L 80.644531 58.066406 L 80.644531 61.289062 L 77.417969 61.289062 Z M 80.644531 58.066406 L 83.871094 58.066406 L 83.871094 61.289062 L 80.644531 61.289062 Z M 87.097656 58.066406 L 90.324219 58.066406 L 90.324219 61.289062 L 87.097656 61.289062 Z M 93.546875 58.066406 L 96.773438 58.066406 L 96.773438 61.289062 L 93.546875 61.289062 Z M 3.226562 61.289062 L 6.453125 61.289062 L 6.453125 64.515625 L 3.226562 64.515625 Z M 9.675781 61.289062 L 12.902344 61.289062 L 12.902344 64.515625 L 9.675781 64.515625 Z M 16.128906 61.289062 L 19.355469 61.289062 L 19.355469 64.515625 L 16.128906 64.515625 Z M 22.582031 61.289062 L 25.804688 61.289062 L 25.804688 64.515625 L 22.582031 64.515625 Z M 29.03125 61.289062 L 32.257812 61.289062 L 32.257812 64.515625 L 29.03125 64.515625 Z M 35.484375 61.289062 L 38.710938 61.289062 L 38.710938 64.515625 L 35.484375 64.515625 Z M 45.160156 61.289062 L 48.386719 61.289062 L 48.386719 64.515625 L 45.160156 64.515625 Z M 48.386719 61.289062 L 51.613281 61.289062 L 51.613281 64.515625 L 48.386719 64.515625 Z M 51.613281 61.289062 L 54.839844 61.289062 L 54.839844 64.515625 L 51.613281 64.515625 Z M 58.066406 61.289062 L 61.289062 61.289062 L 61.289062 64.515625 L 58.066406 64.515625 Z M 74.195312 61.289062 L 77.417969 61.289062 L 77.417969 64.515625 L 74.195312 64.515625 Z M 77.417969 61.289062 L 80.644531 61.289062 L 80.644531 64.515625 L 77.417969 64.515625 Z M 87.097656 61.289062 L 90.324219 61.289062 L 90.324219 64.515625 L 87.097656 64.515625 Z M 3.226562 64.515625 L 6.453125 64.515625 L 6.453125 67.742188 L 3.226562 67.742188 Z M 12.902344 64.515625 L 16.128906 64.515625 L 16.128906 67.742188 L 12.902344 67.742188 Z M 16.128906 64.515625 L 19.355469 64.515625 L 19.355469 67.742188 L 16.128906 67.742188 Z M 25.804688 64.515625 L 29.03125 64.515625 L 29.03125 67.742188 L 25.804688 67.742188 Z M 29.03125 64.515625 L 32.257812 64.515625 L 32.257812 67.742188 L 29.03125 67.742188 Z M 35.484375 64.515625 L 38.710938 64.515625 L 38.710938 67.742188 L 35.484375 67.742188 Z M 41.933594 64.515625 L 45.160156 64.515625 L 45.160156 67.742188 L 41.933594 67.742188 Z M 45.160156 64.515625 L 48.386719 64.515625 L 48.386719 67.742188 L 45.160156 67.742188 Z M 61.289062 64.515625 L 64.515625 64.515625 L 64.515625 67.742188 L 61.289062 67.742188 Z M 67.742188 64.515625 L 70.96875 64.515625 L 70.96875 67.742188 L 67.742188 67.742188 Z M 70.96875 64.515625 L 74.195312 64.515625 L 74.195312 67.742188 L 70.96875 67.742188 Z M 74.195312 64.515625 L 77.417969 64.515625 L 77.417969 67.742188 L 74.195312 67.742188 Z M 77.417969 64.515625 L 80.644531 64.515625 L 80.644531 67.742188 L 77.417969 67.742188 Z M 80.644531 64.515625 L 83.871094 64.515625 L 83.871094 67.742188 L 80.644531 67.742188 Z M 90.324219 64.515625 L 93.546875 64.515625 L 93.546875 67.742188 L 90.324219 67.742188 Z M 3.226562 67.742188 L 6.453125 67.742188 L 6.453125 70.96875 L 3.226562 70.96875 Z M 9.675781 67.742188 L 12.902344 67.742188 L 12.902344 70.96875 L 9.675781 70.96875 Z M 12.902344 67.742188 L 16.128906 67.742188 L 16.128906 70.96875 L 12.902344 70.96875 Z M 16.128906 67.742188 L 19.355469 67.742188 L 19.355469 70.96875 L 16.128906 70.96875 Z M 19.355469 67.742188 L 22.582031 67.742188 L 22.582031 70.96875 L 19.355469 70.96875 Z M 22.582031 67.742188 L 25.804688 67.742188 L 25.804688 70.96875 L 22.582031 70.96875 Z M 25.804688 67.742188 L 29.03125 67.742188 L 29.03125 70.96875 L 25.804688 70.96875 Z M 41.933594 67.742188 L 45.160156 67.742188 L 45.160156 70.96875 L 41.933594 70.96875 Z M 48.386719 67.742188 L 51.613281 67.742188 L 51.613281 70.96875 L 48.386719 70.96875 Z M 54.839844 67.742188 L 58.066406 67.742188 L 58.066406 70.96875 L 54.839844 70.96875 Z M 58.066406 67.742188 L 61.289062 67.742188 L 61.289062 70.96875 L 58.066406 70.96875 Z M 61.289062 67.742188 L 64.515625 67.742188 L 64.515625 70.96875 L 61.289062 70.96875 Z M 67.742188 67.742188 L 70.96875 67.742188 L 70.96875 70.96875 L 67.742188 70.96875 Z M 70.96875 67.742188 L 74.195312 67.742188 L 74.195312 70.96875 L 70.96875 70.96875 Z M 74.195312 67.742188 L 77.417969 67.742188 L 77.417969 70.96875 L 74.195312 70.96875 Z M 77.417969 67.742188 L 80.644531 67.742188 L 80.644531 70.96875 L 77.417969 70.96875 Z M 80.644531 67.742188 L 83.871094 67.742188 L 83.871094 70.96875 L 80.644531 70.96875 Z M 87.097656 67.742188 L 90.324219 67.742188 L 90.324219 70.96875 L 87.097656 70.96875 Z M 90.324219 67.742188 L 93.546875 67.742188 L 93.546875 70.96875 L 90.324219 70.96875 Z M 93.546875 67.742188 L 96.773438 67.742188 L 96.773438 70.96875 L 93.546875 70.96875 Z M 29.03125 70.96875 L 32.257812 70.96875 L 32.257812 74.195312 L 29.03125 74.195312 Z M 32.257812 70.96875 L 35.484375 70.96875 L 35.484375 74.195312 L 32.257812 74.195312 Z M 54.839844 70.96875 L 58.066406 70.96875 L 58.066406 74.195312 L 54.839844 74.195312 Z M 58.066406 70.96875 L 61.289062 70.96875 L 61.289062 74.195312 L 58.066406 74.195312 Z M 61.289062 70.96875 L 64.515625 70.96875 L 64.515625 74.195312 L 61.289062 74.195312 Z M 67.742188 70.96875 L 70.96875 70.96875 L 70.96875 74.195312 L 67.742188 74.195312 Z M 80.644531 70.96875 L 83.871094 70.96875 L 83.871094 74.195312 L 80.644531 74.195312 Z M 83.871094 70.96875 L 87.097656 70.96875 L 87.097656 74.195312 L 83.871094 74.195312 Z M 87.097656 70.96875 L 90.324219 70.96875 L 90.324219 74.195312 L 87.097656 74.195312 Z M 90.324219 70.96875 L 93.546875 70.96875 L 93.546875 74.195312 L 90.324219 74.195312 Z M 93.546875 70.96875 L 96.773438 70.96875 L 96.773438 74.195312 L 93.546875 74.195312 Z M 3.226562 74.195312 L 6.453125 74.195312 L 6.453125 77.417969 L 3.226562 77.417969 Z M 6.453125 74.195312 L 9.675781 74.195312 L 9.675781 77.417969 L 6.453125 77.417969 Z M 9.675781 74.195312 L 12.902344 74.195312 L 12.902344 77.417969 L 9.675781 77.417969 Z M 12.902344 74.195312 L 16.128906 74.195312 L 16.128906 77.417969 L 12.902344 77.417969 Z M 16.128906 74.195312 L 19.355469 74.195312 L 19.355469 77.417969 L 16.128906 77.417969 Z M 19.355469 74.195312 L 22.582031 74.195312 L 22.582031 77.417969 L 19.355469 77.417969 Z M 22.582031 74.195312 L 25.804688 74.195312 L 25.804688 77.417969 L 22.582031 77.417969 Z M 29.03125 74.195312 L 32.257812 74.195312 L 32.257812 77.417969 L 29.03125 77.417969 Z M 32.257812 74.195312 L 35.484375 74.195312 L 35.484375 77.417969 L 32.257812 77.417969 Z M 35.484375 74.195312 L 38.710938 74.195312 L 38.710938 77.417969 L 35.484375 77.417969 Z M 38.710938 74.195312 L 41.933594 74.195312 L 41.933594 77.417969 L 38.710938 77.417969 Z M 41.933594 74.195312 L 45.160156 74.195312 L 45.160156 77.417969 L 41.933594 77.417969 Z M 51.613281 74.195312 L 54.839844 74.195312 L 54.839844 77.417969 L 51.613281 77.417969 Z M 54.839844 74.195312 L 58.066406 74.195312 L 58.066406 77.417969 L 54.839844 77.417969 Z M 58.066406 74.195312 L 61.289062 74.195312 L 61.289062 77.417969 L 58.066406 77.417969 Z M 64.515625 74.195312 L 67.742188 74.195312 L 67.742188 77.417969 L 64.515625 77.417969 Z M 67.742188 74.195312 L 70.96875 74.195312 L 70.96875 77.417969 L 67.742188 77.417969 Z M 74.195312 74.195312 L 77.417969 74.195312 L 77.417969 77.417969 L 74.195312 77.417969 Z M 80.644531 74.195312 L 83.871094 74.195312 L 83.871094 77.417969 L 80.644531 77.417969 Z M 83.871094 74.195312 L 87.097656 74.195312 L 87.097656 77.417969 L 83.871094 77.417969 Z M 87.097656 74.195312 L 90.324219 74.195312 L 90.324219 77.417969 L 87.097656 77.417969 Z M 3.226562 77.417969 L 6.453125 77.417969 L 6.453125 80.644531 L 3.226562 80.644531 Z M 22.582031 77.417969 L 25.804688 77.417969 L 25.804688 80.644531 L 22.582031 80.644531 Z M 32.257812 77.417969 L 35.484375 77.417969 L 35.484375 80.644531 L 32.257812 80.644531 Z M 35.484375 77.417969 L 38.710938 77.417969 L 38.710938 80.644531 L 35.484375 80.644531 Z M 38.710938 77.417969 L 41.933594 77.417969 L 41.933594 80.644531 L 38.710938 80.644531 Z M 48.386719 77.417969 L 51.613281 77.417969 L 51.613281 80.644531 L 48.386719 80.644531 Z M 51.613281 77.417969 L 54.839844 77.417969 L 54.839844 80.644531 L 51.613281 80.644531 Z M 54.839844 77.417969 L 58.066406 77.417969 L 58.066406 80.644531 L 54.839844 80.644531 Z M 64.515625 77.417969 L 67.742188 77.417969 L 67.742188 80.644531 L 64.515625 80.644531 Z M 67.742188 77.417969 L 70.96875 77.417969 L 70.96875 80.644531 L 67.742188 80.644531 Z M 80.644531 77.417969 L 83.871094 77.417969 L 83.871094 80.644531 L 80.644531 80.644531 Z M 90.324219 77.417969 L 93.546875 77.417969 L 93.546875 80.644531 L 90.324219 80.644531 Z M 3.226562 80.644531 L 6.453125 80.644531 L 6.453125 83.871094 L 3.226562 83.871094 Z M 9.675781 80.644531 L 12.902344 80.644531 L 12.902344 83.871094 L 9.675781 83.871094 Z M 12.902344 80.644531 L 16.128906 80.644531 L 16.128906 83.871094 L 12.902344 83.871094 Z M 16.128906 80.644531 L 19.355469 80.644531 L 19.355469 83.871094 L 16.128906 83.871094 Z M 22.582031 80.644531 L 25.804688 80.644531 L 25.804688 83.871094 L 22.582031 83.871094 Z M 29.03125 80.644531 L 32.257812 80.644531 L 32.257812 83.871094 L 29.03125 83.871094 Z M 35.484375 80.644531 L 38.710938 80.644531 L 38.710938 83.871094 L 35.484375 83.871094 Z M 38.710938 80.644531 L 41.933594 80.644531 L 41.933594 83.871094 L 38.710938 83.871094 Z M 58.066406 80.644531 L 61.289062 80.644531 L 61.289062 83.871094 L 58.066406 83.871094 Z M 67.742188 80.644531 L 70.96875 80.644531 L 70.96875 83.871094 L 67.742188 83.871094 Z M 70.96875 80.644531 L 74.195312 80.644531 L 74.195312 83.871094 L 70.96875 83.871094 Z M 74.195312 80.644531 L 77.417969 80.644531 L 77.417969 83.871094 L 74.195312 83.871094 Z M 77.417969 80.644531 L 80.644531 80.644531 L 80.644531 83.871094 L 77.417969 83.871094 Z M 80.644531 80.644531 L 83.871094 80.644531 L 83.871094 83.871094 L 80.644531 83.871094 Z M 87.097656 80.644531 L 90.324219 80.644531 L 90.324219 83.871094 L 87.097656 83.871094 Z M 90.324219 80.644531 L 93.546875 80.644531 L 93.546875 83.871094 L 90.324219 83.871094 Z M 93.546875 80.644531 L 96.773438 80.644531 L 96.773438 83.871094 L 93.546875 83.871094 Z M 3.226562 83.871094 L 6.453125 83.871094 L 6.453125 87.097656 L 3.226562 87.097656 Z M 9.675781 83.871094 L 12.902344 83.871094 L 12.902344 87.097656 L 9.675781 87.097656 Z M 12.902344 83.871094 L 16.128906 83.871094 L 16.128906 87.097656 L 12.902344 87.097656 Z M 16.128906 83.871094 L 19.355469 83.871094 L 19.355469 87.097656 L 16.128906 87.097656 Z M 22.582031 83.871094 L 25.804688 83.871094 L 25.804688 87.097656 L 22.582031 87.097656 Z M 29.03125 83.871094 L 32.257812 83.871094 L 32.257812 87.097656 L 29.03125 87.097656 Z M 32.257812 83.871094 L 35.484375 83.871094 L 35.484375 87.097656 L 32.257812 87.097656 Z M 35.484375 83.871094 L 38.710938 83.871094 L 38.710938 87.097656 L 35.484375 87.097656 Z M 41.933594 83.871094 L 45.160156 83.871094 L 45.160156 87.097656 L 41.933594 87.097656 Z M 45.160156 83.871094 L 48.386719 83.871094 L 48.386719 87.097656 L 45.160156 87.097656 Z M 48.386719 83.871094 L 51.613281 83.871094 L 51.613281 87.097656 L 48.386719 87.097656 Z M 54.839844 83.871094 L 58.066406 83.871094 L 58.066406 87.097656 L 54.839844 87.097656 Z M 58.066406 83.871094 L 61.289062 83.871094 L 61.289062 87.097656 L 58.066406 87.097656 Z M 61.289062 83.871094 L 64.515625 83.871094 L 64.515625 87.097656 L 61.289062 87.097656 Z M 64.515625 83.871094 L 67.742188 83.871094 L 67.742188 87.097656 L 64.515625 87.097656 Z M 77.417969 83.871094 L 80.644531 83.871094 L 80.644531 87.097656 L 77.417969 87.097656 Z M 83.871094 83.871094 L 87.097656 83.871094 L 87.097656 87.097656 L 83.871094 87.097656 Z M 87.097656 83.871094 L 90.324219 83.871094 L 90.324219 87.097656 L 87.097656 87.097656 Z M 90.324219 83.871094 L 93.546875 83.871094 L 93.546875 87.097656 L 90.324219 87.097656 Z M 93.546875 83.871094 L 96.773438 83.871094 L 96.773438 87.097656 L 93.546875 87.097656 Z M 3.226562 87.097656 L 6.453125 87.097656 L 6.453125 90.324219 L 3.226562 90.324219 Z M 9.675781 87.097656 L 12.902344 87.097656 L 12.902344 90.324219 L 9.675781 90.324219 Z M 12.902344 87.097656 L 16.128906 87.097656 L 16.128906 90.324219 L 12.902344 90.324219 Z M 16.128906 87.097656 L 19.355469 87.097656 L 19.355469 90.324219 L 16.128906 90.324219 Z M 22.582031 87.097656 L 25.804688 87.097656 L 25.804688 90.324219 L 22.582031 90.324219 Z M 29.03125 87.097656 L 32.257812 87.097656 L 32.257812 90.324219 L 29.03125 90.324219 Z M 32.257812 87.097656 L 35.484375 87.097656 L 35.484375 90.324219 L 32.257812 90.324219 Z M 45.160156 87.097656 L 48.386719 87.097656 L 48.386719 90.324219 L 45.160156 90.324219 Z M 48.386719 87.097656 L 51.613281 87.097656 L 51.613281 90.324219 L 48.386719 90.324219 Z M 51.613281 87.097656 L 54.839844 87.097656 L 54.839844 90.324219 L 51.613281 90.324219 Z M 54.839844 87.097656 L 58.066406 87.097656 L 58.066406 90.324219 L 54.839844 90.324219 Z M 61.289062 87.097656 L 64.515625 87.097656 L 64.515625 90.324219 L 61.289062 90.324219 Z M 64.515625 87.097656 L 67.742188 87.097656 L 67.742188 90.324219 L 64.515625 90.324219 Z M 70.96875 87.097656 L 74.195312 87.097656 L 74.195312 90.324219 L 70.96875 90.324219 Z M 74.195312 87.097656 L 77.417969 87.097656 L 77.417969 90.324219 L 74.195312 90.324219 Z M 77.417969 87.097656 L 80.644531 87.097656 L 80.644531 90.324219 L 77.417969 90.324219 Z M 80.644531 87.097656 L 83.871094 87.097656 L 83.871094 90.324219 L 80.644531 90.324219 Z M 83.871094 87.097656 L 87.097656 87.097656 L 87.097656 90.324219 L 83.871094 90.324219 Z M 87.097656 87.097656 L 90.324219 87.097656 L 90.324219 90.324219 L 87.097656 90.324219 Z M 90.324219 87.097656 L 93.546875 87.097656 L 93.546875 90.324219 L 90.324219 90.324219 Z M 3.226562 90.324219 L 6.453125 90.324219 L 6.453125 93.546875 L 3.226562 93.546875 Z M 22.582031 90.324219 L 25.804688 90.324219 L 25.804688 93.546875 L 22.582031 93.546875 Z M 29.03125 90.324219 L 32.257812 90.324219 L 32.257812 93.546875 L 29.03125 93.546875 Z M 32.257812 90.324219 L 35.484375 90.324219 L 35.484375 93.546875 L 32.257812 93.546875 Z M 35.484375 90.324219 L 38.710938 90.324219 L 38.710938 93.546875 L 35.484375 93.546875 Z M 41.933594 90.324219 L 45.160156 90.324219 L 45.160156 93.546875 L 41.933594 93.546875 Z M 45.160156 90.324219 L 48.386719 90.324219 L 48.386719 93.546875 L 45.160156 93.546875 Z M 51.613281 90.324219 L 54.839844 90.324219 L 54.839844 93.546875 L 51.613281 93.546875 Z M 61.289062 90.324219 L 64.515625 90.324219 L 64.515625 93.546875 L 61.289062 93.546875 Z M 67.742188 90.324219 L 70.96875 90.324219 L 70.96875 93.546875 L 67.742188 93.546875 Z M 70.96875 90.324219 L 74.195312 90.324219 L 74.195312 93.546875 L 70.96875 93.546875 Z M 74.195312 90.324219 L 77.417969 90.324219 L 77.417969 93.546875 L 74.195312 93.546875 Z M 77.417969 90.324219 L 80.644531 90.324219 L 80.644531 93.546875 L 77.417969 93.546875 Z M 83.871094 90.324219 L 87.097656 90.324219 L 87.097656 93.546875 L 83.871094 93.546875 Z M 90.324219 90.324219 L 93.546875 90.324219 L 93.546875 93.546875 L 90.324219 93.546875 Z M 3.226562 93.546875 L 6.453125 93.546875 L 6.453125 96.773438 L 3.226562 96.773438 Z M 6.453125 93.546875 L 9.675781 93.546875 L 9.675781 96.773438 L 6.453125 96.773438 Z M 9.675781 93.546875 L 12.902344 93.546875 L 12.902344 96.773438 L 9.675781 96.773438 Z M 12.902344 93.546875 L 16.128906 93.546875 L 16.128906 96.773438 L 12.902344 96.773438 Z M 16.128906 93.546875 L 19.355469 93.546875 L 19.355469 96.773438 L 16.128906 96.773438 Z M 19.355469 93.546875 L 22.582031 93.546875 L 22.582031 96.773438 L 19.355469 96.773438 Z M 22.582031 93.546875 L 25.804688 93.546875 L 25.804688 96.773438 L 22.582031 96.773438 Z M 29.03125 93.546875 L 32.257812 93.546875 L 32.257812 96.773438 L 29.03125 96.773438 Z M 41.933594 93.546875 L 45.160156 93.546875 L 45.160156 96.773438 L 41.933594 96.773438 Z M 48.386719 93.546875 L 51.613281 93.546875 L 51.613281 96.773438 L 48.386719 96.773438 Z M 51.613281 93.546875 L 54.839844 93.546875 L 54.839844 96.773438 L 51.613281 96.773438 Z M 58.066406 93.546875 L 61.289062 93.546875 L 61.289062 96.773438 L 58.066406 96.773438 Z M 64.515625 93.546875 L 67.742188 93.546875 L 67.742188 96.773438 L 64.515625 96.773438 Z M 74.195312 93.546875 L 77.417969 93.546875 L 77.417969 96.773438 L 74.195312 96.773438 Z M 77.417969 93.546875 L 80.644531 93.546875 L 80.644531 96.773438 L 77.417969 96.773438 Z M 80.644531 93.546875 L 83.871094 93.546875 L 83.871094 96.773438 L 80.644531 96.773438 Z M 83.871094 93.546875 L 87.097656 93.546875 L 87.097656 96.773438 L 83.871094 96.773438 Z M 87.097656 93.546875 L 90.324219 93.546875 L 90.324219 96.773438 L 87.097656 96.773438 Z M 87.097656 93.546875 "/>
</g>
</svg>
